<svg width="24" height="24" viewBox="0 0 24 24" fill="none" xmlns="http://www.w3.org/2000/svg">
<g clip-path="url(#clip0_488_11447)">
<path d="M19.8026 7.94573L19.8026 19.1028C19.8026 20.1497 18.9523 21 17.9054 21L1.89722 21C0.850327 21 3.05547e-05 20.1497 3.06005e-05 19.1028L3.10882e-05 7.94573C3.1134e-05 6.89883 0.850327 6.04853 1.89723 6.04853L17.9054 6.04853C18.9523 6.05345 19.8026 6.90375 19.8026 7.94573ZM1.90214 7.3805C1.58758 7.3805 1.332 7.63608 1.332 7.95064L1.332 19.1077C1.332 19.4223 1.58758 19.6779 1.90214 19.6779L17.9054 19.6779C18.22 19.6779 18.4756 19.4223 18.4756 19.1077L18.4756 7.95064C18.4756 7.63608 18.22 7.3805 17.9054 7.3805L1.90214 7.3805Z" fill="#C0C0C0"/>
<path d="M24 3.67962L24 14.8367C24 15.8836 23.1497 16.7339 22.1028 16.7339C21.7342 16.7339 21.4393 16.439 21.4393 16.0704C21.4393 15.7017 21.7342 15.4068 22.1028 15.4068C22.4174 15.4068 22.6729 15.1513 22.6729 14.8367L22.6729 3.67962C22.6729 3.36506 22.4174 3.10948 22.1028 3.10948L6.09461 3.10947C5.78005 3.10947 5.52447 3.36506 5.52447 3.67962C5.52447 4.04824 5.22957 4.34314 4.86095 4.34314C4.49232 4.34314 4.19742 4.04824 4.19742 3.67962C4.19742 2.63272 5.04772 1.78242 6.09461 1.78242L22.1028 1.78242C23.1497 1.78242 24 2.63272 24 3.67962Z" fill="#C0C0C0"/>
</g>
<defs>
<clipPath id="clip0_488_11447">
<rect width="24" height="24" fill="white" transform="matrix(4.37114e-08 -1 -1 -4.37114e-08 24 24)"/>
</clipPath>
</defs>
</svg>
