<svg width="24" height="24" viewBox="0 0 24 24" fill="none" xmlns="http://www.w3.org/2000/svg">
<path d="M6.5805 5.96607C9.53325 3.2951 13.9522 3.25426 16.9458 5.69243L14.573 5.78228C14.2667 5.79454 14.0298 6.04775 14.042 6.35405C14.0543 6.65219 14.2993 6.88498 14.5934 6.88498C14.6015 6.88498 14.6056 6.88498 14.6138 6.88498L18.2568 6.7502C18.5549 6.73795 18.7877 6.49699 18.7877 6.19886V6.15802C18.7877 6.14985 18.7877 6.14576 18.7877 6.1376V6.13351L18.6529 2.53138C18.6407 2.22508 18.3834 1.9882 18.0811 2.00045C17.7748 2.01271 17.538 2.26592 17.5502 2.57222L17.636 4.8307C16.1535 3.61774 14.3279 2.91528 12.3757 2.81726C9.95799 2.69474 7.63418 3.5238 5.84128 5.14926C3.37453 7.38323 2.32901 10.7812 3.11315 14.0157C3.17441 14.2689 3.39903 14.4364 3.64816 14.4364C3.69308 14.4364 3.73392 14.4323 3.77885 14.42C4.0729 14.3465 4.25668 14.0484 4.18317 13.7543C3.49705 10.9118 4.41187 7.92641 6.5805 5.96607Z" fill="#C0C0C0"/>
<path d="M20.8868 9.98474C20.8133 9.69069 20.5152 9.50691 20.2211 9.58042C19.9271 9.65393 19.7433 9.95207 19.8168 10.2461C20.507 13.0886 19.5881 16.074 17.4195 18.0344C15.8961 19.4107 13.9848 20.0887 12.0816 20.0887C10.2642 20.0887 8.45093 19.472 6.98884 18.2549L9.39026 18.0385C9.69248 18.0099 9.9171 17.7444 9.88851 17.4381C9.85992 17.1318 9.59446 16.9113 9.28816 16.9399L5.65744 17.2666C5.35523 17.2952 5.1306 17.5606 5.15919 17.8669L5.48591 21.4977C5.51042 21.7835 5.75138 22 6.03318 22C6.04951 22 6.06585 22 6.08218 21.9959C6.3844 21.9673 6.60903 21.7019 6.58044 21.3956L6.3844 19.1861C7.86691 20.3868 9.68431 21.0852 11.6242 21.1832C11.7794 21.1913 11.9346 21.1954 12.0857 21.1954C14.336 21.1954 16.4761 20.3705 18.1587 18.8512C20.6255 16.6172 21.671 13.2234 20.8868 9.98474Z" fill="#C0C0C0"/>
</svg>
