<svg width="22" height="20" viewBox="0 0 22 20" fill="none" xmlns="http://www.w3.org/2000/svg">
<path d="M21.7969 9.02385L11.4439 0.203269C11.4258 0.186024 11.4077 0.173091 11.385 0.160157C11.1588 -0.0467773 10.7968 -0.0553995 10.557 0.147224L0.203965 8.96781C-0.0494309 9.18336 -0.0675306 9.54981 0.154191 9.79123C0.276363 9.92057 0.443785 9.98523 0.611208 9.98523C0.756005 9.98523 0.900802 9.93781 1.01845 9.83865L2.88272 8.24785V8.55825V13.1625V18.5342C2.88272 19.3404 3.57051 20 4.42119 20C4.43477 20 4.44382 20 4.45739 20C4.47097 20 4.48002 20 4.49359 20H7.68818C8.48457 20 9.13163 19.3835 9.13163 18.6247V13.3953C9.13163 13.2789 9.23118 13.1841 9.35335 13.1841H12.652C12.7742 13.1841 12.8737 13.2789 12.8737 13.3953V18.6247C12.8737 19.3835 13.5208 20 14.3172 20H17.5842C18.4439 20 19.1227 19.1938 19.1227 18.1635V13.3695V11.9037V8.30389L20.9869 9.8947C21.1046 9.99386 21.2494 10.0413 21.3942 10.0413C21.5616 10.0413 21.729 9.97661 21.8512 9.84728C22.0684 9.60585 22.0458 9.23941 21.7969 9.02385ZM17.8964 11.8994V13.3652V18.1548C17.8964 18.573 17.6792 18.8274 17.5797 18.8274H14.3127C14.1905 18.8274 14.0909 18.7325 14.0909 18.6161V13.3953C14.0909 12.6366 13.4439 12.0201 12.6475 12.0201H9.34883C8.55244 12.0201 7.90538 12.6366 7.90538 13.3953V18.6247C7.90538 18.7411 7.80583 18.836 7.68366 18.836H4.48907C4.47549 18.836 4.46644 18.836 4.45287 18.836C4.43929 18.836 4.43024 18.836 4.41667 18.836C4.24472 18.836 4.09992 18.7023 4.09992 18.5342V13.1582V8.55394V7.20455L10.9688 1.35865L17.8964 7.2606V11.8994Z" fill="#3F55FD"/>
</svg>
