<svg width="54" height="40" viewBox="0 0 54 40" fill="none" xmlns="http://www.w3.org/2000/svg">
<g clip-path="url(#clip0_116_1629)">
<path d="M43.9038 21.2078H34.7819C33.3995 21.2074 32.0535 21.6167 30.9423 22.3754C29.8311 23.1342 29.0134 24.2022 28.6097 25.4222L27.1887 29.7186C27.1762 29.7597 27.1494 29.7959 27.1125 29.8218C27.0755 29.8476 27.0305 29.8615 26.9841 29.8615C26.9378 29.8615 26.8927 29.8476 26.8558 29.8218C26.8189 29.7959 26.7921 29.7597 26.7795 29.7186L25.3744 25.4368C24.9723 24.2136 24.1546 23.1422 23.0421 22.3807C21.9295 21.6192 20.5811 21.208 19.1959 21.2078H0.428558V21.6585C0.428558 21.6585 14.4921 22.8291 19.1959 23.0106C20.1611 23.0218 21.0978 23.3146 21.8715 23.8472C22.6453 24.3798 23.2165 25.1247 23.5031 25.9753L26.1516 34.0441C26.2059 34.2076 26.3156 34.3507 26.4647 34.4523C26.6136 34.554 26.7941 34.6088 26.9793 34.6088C27.1646 34.6088 27.3451 34.554 27.4941 34.4523C27.6431 34.3507 27.7528 34.2076 27.8072 34.0441L30.4778 25.9636C30.7578 25.1136 31.3275 24.3696 32.1024 23.8423C32.8773 23.315 33.8159 23.0326 34.7787 23.0369H38.1979C39.5499 23.0369 40.8467 23.5324 41.8031 24.4143C42.7595 25.2962 43.2972 26.4925 43.2981 27.7401C43.2914 30.3884 42.1472 32.9261 40.1163 34.7974C38.0853 36.6686 35.3334 37.7206 32.4633 37.723H21.5334C18.6605 37.723 15.9048 36.6706 13.8721 34.7972C11.8394 32.9237 10.6958 30.3823 10.6924 27.7313V25.1851H0.428558V30.1195C0.428558 32.6033 1.49789 34.9854 3.40132 36.7418C5.30474 38.4981 7.88634 39.4848 10.5782 39.4848H43.4376C44.7699 39.4852 46.0891 39.2431 47.3198 38.7724C48.5505 38.3017 49.6685 37.6117 50.6099 36.7417C51.5511 35.8718 52.2972 34.8391 52.8055 33.7028C53.3136 32.5664 53.5739 31.3488 53.5714 30.1195C53.5718 28.9483 53.322 27.7886 52.8362 26.7066C52.3504 25.6246 51.6381 24.6417 50.7402 23.814C49.8423 22.9863 48.7763 22.3301 47.6032 21.8828C46.4302 21.4356 45.1731 21.2063 43.9038 21.2078Z" fill="white"/>
<path d="M53.5587 14.7993V9.87961C53.5588 7.39829 52.4916 5.01841 50.5916 3.26249C48.6916 1.50657 46.1141 0.518159 43.425 0.514282H10.5783C7.88637 0.514282 5.30477 1.50098 3.40135 3.25732C1.49792 5.01366 0.428589 7.39577 0.428589 9.87961C0.431951 12.2411 1.45097 14.5048 3.26184 16.1736C5.0727 17.8423 7.52733 18.7796 10.0866 18.7796H19.2054C20.5882 18.7798 21.9344 18.3701 23.0457 17.6107C24.1571 16.8514 24.9745 15.7828 25.3777 14.5622L26.8018 10.2688C26.8143 10.2277 26.8411 10.1915 26.8781 10.1656C26.915 10.1398 26.96 10.1258 27.0064 10.1258C27.0527 10.1258 27.0977 10.1398 27.1346 10.1656C27.1716 10.1915 27.1984 10.2277 27.2109 10.2688L28.616 14.5622C29.0165 15.7859 29.8332 16.8582 30.9454 17.6204C32.0576 18.3825 33.4061 18.7941 34.7915 18.7942H53.5587V18.3289C53.5587 18.3289 39.4951 17.1582 34.7915 16.9738C33.829 16.9637 32.8946 16.6733 32.1217 16.1441C31.3487 15.6148 30.7767 14.8738 30.4873 14.0267L27.8358 5.95494C27.7824 5.79103 27.6732 5.64736 27.5244 5.54521C27.3756 5.44307 27.195 5.38792 27.0095 5.38792C26.824 5.38792 26.6435 5.44307 26.4946 5.54521C26.3458 5.64736 26.2366 5.79103 26.1833 5.95494L23.5127 14.0355C23.2323 14.8852 22.6623 15.6289 21.8876 16.1562C21.1128 16.6834 20.1744 16.966 19.2118 16.9621H15.7894C14.4398 16.9621 13.1453 16.4682 12.1897 15.5888C11.2342 14.7093 10.6958 13.516 10.6924 12.2707C10.6932 9.61817 11.8358 7.07451 13.8688 5.19915C15.9018 3.3238 18.6588 2.27028 21.5335 2.27028H32.4634C35.3386 2.27028 38.0961 3.3242 40.1291 5.20019C42.1623 7.07617 43.3044 9.62058 43.3044 12.2736V14.8052L53.5587 14.7993Z" fill="white"/>
</g>
<defs>
<clipPath id="clip0_116_1629">
<rect width="53.1429" height="38.9714" fill="white" transform="translate(0.428589 0.514282)"/>
</clipPath>
</defs>
</svg>
