<svg width="24" height="25" viewBox="0 0 24 25" fill="none" xmlns="http://www.w3.org/2000/svg">
<g clip-path="url(#clip0_488_13840)">
<path d="M21.5303 14.9697L19.5 12.9394V10.25C19.4976 8.39146 18.8061 6.59983 17.5593 5.22154C16.3126 3.84326 14.599 2.97622 12.75 2.7881V1.25H11.25V2.7881C9.40101 2.97622 7.68744 3.84326 6.44065 5.22154C5.19386 6.59983 4.50241 8.39146 4.5 10.25V12.9394L2.46968 14.9697C2.32904 15.1104 2.25002 15.3011 2.25 15.5V17.75C2.25 17.9489 2.32902 18.1397 2.46967 18.2803C2.61032 18.421 2.80109 18.5 3 18.5H8.25V19.0826C8.23374 20.034 8.56913 20.958 9.19191 21.6775C9.81469 22.397 10.6811 22.8613 11.625 22.9816C12.1464 23.0334 12.6728 22.9754 13.1704 22.8115C13.668 22.6475 14.1258 22.3813 14.5143 22.0298C14.9029 21.6783 15.2135 21.2494 15.4263 20.7707C15.6391 20.2919 15.7494 19.7739 15.75 19.25V18.5H21C21.1989 18.5 21.3897 18.421 21.5303 18.2803C21.671 18.1397 21.75 17.9489 21.75 17.75V15.5C21.75 15.3011 21.671 15.1104 21.5303 14.9697ZM14.25 19.25C14.25 19.8467 14.0129 20.419 13.591 20.841C13.169 21.2629 12.5967 21.5 12 21.5C11.4033 21.5 10.831 21.2629 10.409 20.841C9.98705 20.419 9.75 19.8467 9.75 19.25V18.5H14.25V19.25ZM20.25 17H3.75V15.8106L5.78025 13.7802C5.92091 13.6396 5.99996 13.4489 6 13.25V10.25C6 8.6587 6.63214 7.13258 7.75736 6.00736C8.88258 4.88214 10.4087 4.25 12 4.25C13.5913 4.25 15.1174 4.88214 16.2426 6.00736C17.3679 7.13258 18 8.6587 18 10.25V13.25C18 13.4489 18.0791 13.6396 18.2197 13.7802L20.25 15.8106V17Z" fill="white"/>
</g>
<defs>
<clipPath id="clip0_488_13840">
<rect width="24" height="24" fill="white" transform="translate(0 0.5)"/>
</clipPath>
</defs>
</svg>
