<svg width="24" height="25" viewBox="0 0 24 25" fill="none" xmlns="http://www.w3.org/2000/svg">
<g clip-path="url(#clip0_488_13835)">
<path d="M20.2499 13.07C20.2499 12.8825 20.2499 12.695 20.2499 12.5C20.2499 12.305 20.2499 12.1175 20.2499 11.9225L21.6899 10.6625C21.9554 10.4285 22.1296 10.1083 22.1817 9.7583C22.2339 9.40833 22.1606 9.05119 21.9749 8.75L20.2049 5.75C20.0734 5.5222 19.8843 5.33299 19.6566 5.20135C19.4288 5.06971 19.1705 5.00027 18.9074 5C18.7444 4.99875 18.5823 5.02408 18.4274 5.075L16.6049 5.69C16.2903 5.48091 15.9621 5.29299 15.6224 5.1275L15.2399 3.2375C15.1714 2.8922 14.9835 2.58203 14.7093 2.36128C14.4351 2.14052 14.0919 2.02325 13.7399 2.03H10.2299C9.87797 2.02325 9.53483 2.14052 9.2606 2.36128C8.98638 2.58203 8.79853 2.8922 8.72995 3.2375L8.34745 5.1275C8.0054 5.29295 7.67467 5.48086 7.35745 5.69L5.57245 5.045C5.41592 5.00422 5.25383 4.98902 5.09245 5C4.8294 5.00027 4.57105 5.06971 4.34332 5.20135C4.11558 5.33299 3.92647 5.5222 3.79495 5.75L2.02495 8.75C1.84989 9.05074 1.78483 9.40299 1.84093 9.74642C1.89703 10.0899 2.07079 10.4031 2.33245 10.6325L3.74995 11.93C3.74995 12.1175 3.74995 12.305 3.74995 12.5C3.74995 12.695 3.74995 12.8825 3.74995 13.0775L2.33245 14.3375C2.0634 14.5685 1.88489 14.8873 1.82859 15.2375C1.7723 15.5876 1.84187 15.9463 2.02495 16.25L3.79495 19.25C3.92647 19.4778 4.11558 19.667 4.34332 19.7987C4.57105 19.9303 4.8294 19.9997 5.09245 20C5.25546 20.0012 5.41758 19.9759 5.57245 19.925L7.39495 19.31C7.7096 19.5191 8.03783 19.707 8.37745 19.8725L8.75995 21.7625C8.82853 22.1078 9.01638 22.418 9.2906 22.6387C9.56483 22.8595 9.90797 22.9767 10.2599 22.97H13.7999C14.1519 22.9767 14.4951 22.8595 14.7693 22.6387C15.0435 22.418 15.2314 22.1078 15.2999 21.7625L15.6824 19.8725C16.0245 19.7071 16.3552 19.5191 16.6724 19.31L18.4874 19.925C18.6423 19.9759 18.8044 20.0012 18.9674 20C19.2305 19.9997 19.4888 19.9303 19.7166 19.7987C19.9443 19.667 20.1334 19.4778 20.2649 19.25L21.9749 16.25C22.15 15.9493 22.2151 15.597 22.159 15.2536C22.1029 14.9101 21.9291 14.5969 21.6674 14.3675L20.2499 13.07ZM18.9074 18.5L16.3349 17.63C15.7327 18.1401 15.0445 18.5388 14.3024 18.8075L13.7699 21.5H10.2299L9.69745 18.8375C8.96126 18.5612 8.27673 18.1631 7.67245 17.66L5.09245 18.5L3.32245 15.5L5.36245 13.7C5.22377 12.9236 5.22377 12.1289 5.36245 11.3525L3.32245 9.5L5.09245 6.5L7.66495 7.37C8.26715 6.85992 8.9554 6.46119 9.69745 6.1925L10.2299 3.5H13.7699L14.3024 6.1625C15.0386 6.43882 15.7232 6.83686 16.3274 7.34L18.9074 6.5L20.6774 9.5L18.6374 11.3C18.7761 12.0764 18.7761 12.8711 18.6374 13.6475L20.6774 15.5L18.9074 18.5Z" fill="white"/>
<path d="M12 17C11.11 17 10.24 16.7361 9.49994 16.2416C8.75991 15.7471 8.18314 15.0443 7.84254 14.2221C7.50195 13.3998 7.41283 12.495 7.58647 11.6221C7.7601 10.7492 8.18868 9.94736 8.81802 9.31802C9.44736 8.68868 10.2492 8.2601 11.1221 8.08647C11.995 7.91283 12.8998 8.00195 13.7221 8.34254C14.5443 8.68314 15.2471 9.25991 15.7416 9.99994C16.2361 10.74 16.5 11.61 16.5 12.5C16.506 13.0926 16.3937 13.6805 16.1697 14.2292C15.9457 14.7779 15.6145 15.2763 15.1954 15.6954C14.7763 16.1145 14.2779 16.4457 13.7292 16.6697C13.1805 16.8937 12.5926 17.006 12 17ZM12 9.5C11.6035 9.49077 11.2093 9.56205 10.8411 9.70954C10.473 9.85704 10.1386 10.0777 9.85812 10.3581C9.57768 10.6386 9.35704 10.973 9.20954 11.3411C9.06205 11.7093 8.99077 12.1035 9 12.5C8.99077 12.8965 9.06205 13.2907 9.20954 13.6589C9.35704 14.027 9.57768 14.3615 9.85812 14.6419C10.1386 14.9223 10.473 15.143 10.8411 15.2905C11.2093 15.438 11.6035 15.5092 12 15.5C12.3965 15.5092 12.7907 15.438 13.1589 15.2905C13.527 15.143 13.8615 14.9223 14.1419 14.6419C14.4223 14.3615 14.643 14.027 14.7905 13.6589C14.938 13.2907 15.0092 12.8965 15 12.5C15.0092 12.1035 14.938 11.7093 14.7905 11.3411C14.643 10.973 14.4223 10.6386 14.1419 10.3581C13.8615 10.0777 13.527 9.85704 13.1589 9.70954C12.7907 9.56205 12.3965 9.49077 12 9.5Z" fill="white"/>
</g>
<defs>
<clipPath id="clip0_488_13835">
<rect width="24" height="24" fill="white" transform="translate(0 0.5)"/>
</clipPath>
</defs>
</svg>
