<svg width="10" height="8" viewBox="0 0 10 8" fill="none" xmlns="http://www.w3.org/2000/svg">
<path d="M1.77616 6.02546C1.83542 5.96621 1.9169 5.93164 2.00331 5.93164H9.84005C9.98326 5.93164 10.0549 6.10447 9.95363 6.2057L8.40554 7.75379C8.34628 7.81305 8.2648 7.84762 8.17839 7.84762H0.341649C0.198445 7.84762 0.126843 7.67478 0.228074 7.57355L1.77616 6.02546Z" fill="url(#paint0_linear_418_14509)"/>
<path d="M1.77616 0.246167C1.83789 0.18691 1.91937 0.152344 2.00331 0.152344H9.84005C9.98326 0.152344 10.0549 0.325177 9.95363 0.426407L8.40554 1.9745C8.34628 2.03375 8.2648 2.06832 8.17839 2.06832H0.341649C0.198445 2.06832 0.126843 1.89549 0.228074 1.79426L1.77616 0.246167Z" fill="url(#paint1_linear_418_14509)"/>
<path d="M8.40554 3.11726C8.34628 3.058 8.2648 3.02344 8.17839 3.02344H0.341649C0.198445 3.02344 0.126843 3.19627 0.228074 3.2975L1.77616 4.84559C1.83542 4.90485 1.9169 4.93941 2.00331 4.93941H9.84005C9.98326 4.93941 10.0549 4.76658 9.95363 4.66535L8.40554 3.11726Z" fill="url(#paint2_linear_418_14509)"/>
<defs>
<linearGradient id="paint0_linear_418_14509" x1="-17.5317" y1="-1.30226" x2="-17.7402" y2="9.18985" gradientUnits="userSpaceOnUse">
<stop stop-color="#00FFA3"/>
<stop offset="1" stop-color="#DC1FFF"/>
</linearGradient>
<linearGradient id="paint1_linear_418_14509" x1="-19.9032" y1="-2.53965" x2="-20.1117" y2="7.95245" gradientUnits="userSpaceOnUse">
<stop stop-color="#00FFA3"/>
<stop offset="1" stop-color="#DC1FFF"/>
</linearGradient>
<linearGradient id="paint2_linear_418_14509" x1="-18.725" y1="-1.92493" x2="-18.9335" y2="8.56717" gradientUnits="userSpaceOnUse">
<stop stop-color="#00FFA3"/>
<stop offset="1" stop-color="#DC1FFF"/>
</linearGradient>
</defs>
</svg>
