<svg width="25" height="24" viewBox="0 0 25 24" fill="none" xmlns="http://www.w3.org/2000/svg">
<path opacity="0.35" d="M20.9001 8H4.90015C3.79515 8 2.90015 8.895 2.90015 10V16H22.9001V10C22.9001 8.895 22.0051 8 20.9001 8Z" fill="white"/>
<path d="M20.9001 6H4.90015C3.79515 6 2.90015 6.895 2.90015 8V10C2.90015 8.895 3.79515 8 4.90015 8H20.9001C22.0051 8 22.9001 8.895 22.9001 10V8C22.9001 6.895 22.0051 6 20.9001 6Z" fill="white"/>
<path opacity="0.35" d="M20.9001 4H4.90015C3.79515 4 2.90015 4.895 2.90015 6V8C2.90015 6.895 3.79515 6 4.90015 6H20.9001C22.0051 6 22.9001 6.895 22.9001 8V6C22.9001 4.895 22.0051 4 20.9001 4Z" fill="white"/>
<path d="M15.9001 12C15.9001 13.657 14.5571 15 12.9001 15C11.2431 15 9.90015 13.657 9.90015 12H2.90015V17C2.90015 18.657 4.24315 20 5.90015 20H19.9001C21.5571 20 22.9001 18.657 22.9001 17V12H15.9001Z" fill="white"/>
</svg>
