<svg width="25" height="24" viewBox="0 0 25 24" fill="none" xmlns="http://www.w3.org/2000/svg">
<path opacity="0.35" d="M19.3 4H5.29999C3.64313 4 2.29999 5.34315 2.29999 7V17C2.29999 18.6569 3.64313 20 5.29999 20H19.3C20.9568 20 22.3 18.6569 22.3 17V7C22.3 5.34315 20.9568 4 19.3 4Z" fill="white"/>
<path d="M17.3 10C18.4046 10 19.3 9.10457 19.3 8C19.3 6.89543 18.4046 6 17.3 6C16.1954 6 15.3 6.89543 15.3 8C15.3 9.10457 16.1954 10 17.3 10Z" fill="white"/>
<path d="M4.29999 16C4.29999 16.2652 4.40534 16.5196 4.59288 16.7071C4.78042 16.8946 5.03477 17 5.29999 17H19.3C19.5652 17 19.8196 16.8946 20.0071 16.7071C20.1946 16.5196 20.3 16.2652 20.3 16C20.3 14.636 18.612 13 17.8 13C16.988 13 16.252 14 14.3 14C11.858 14 10.3 9 8.29999 9C6.29999 9 4.29999 13.362 4.29999 16Z" fill="white"/>
</svg>
