<svg width="25" height="24" viewBox="0 0 25 24" fill="none" xmlns="http://www.w3.org/2000/svg">
<path opacity="0.35" d="M12.1 2C6.57698 2 2.09998 6.477 2.09998 12C2.09998 17.523 6.57698 22 12.1 22C17.623 22 22.1 17.523 22.1 12C22.1 6.477 17.623 2 12.1 2Z" fill="white"/>
<path d="M19.246 10.4879C19.662 10.8359 20.285 10.3839 20.066 9.88789C19.161 7.83889 16.98 6.39189 14.438 6.39189C12.291 6.39189 10.476 7.23589 9.29899 8.52689C9.29699 8.52589 9.29799 8.52689 9.29599 8.52589C9.28799 6.84889 9.92099 5.64989 10.588 4.85389C10.936 4.43789 10.484 3.81489 9.98799 4.03389C7.93899 4.93989 6.49199 7.12089 6.49199 9.66289C6.49199 11.8099 7.33599 13.6249 8.62699 14.8019C8.62599 14.8039 8.62699 14.8029 8.62599 14.8049C6.94899 14.8129 5.74999 14.1799 4.95399 13.5129C4.53799 13.1649 3.91499 13.6169 4.13399 14.1129C5.03899 16.1619 7.21999 17.6089 9.76199 17.6089C11.909 17.6089 13.724 16.7649 14.901 15.4739C14.903 15.4749 14.902 15.4739 14.904 15.4749C14.912 17.1519 14.279 18.3509 13.612 19.1469C13.264 19.5629 13.716 20.1859 14.212 19.9669C16.261 19.0619 17.708 16.8809 17.708 14.3389C17.708 12.1919 16.864 10.3769 15.573 9.19989C15.574 9.19789 15.573 9.19889 15.574 9.19689C17.251 9.18789 18.45 9.82089 19.246 10.4879Z" fill="white"/>
</svg>
