<svg width="25" height="24" viewBox="0 0 25 24" fill="none" xmlns="http://www.w3.org/2000/svg">
<path d="M14.2721 16.5321C13.3081 17.1251 12.0921 17.1251 11.1271 16.5321L4.70007 12.5771V18.0001C4.70007 19.6571 6.04307 21.0001 7.70007 21.0001H17.7001C19.3571 21.0001 20.7001 19.6571 20.7001 18.0001V12.5771L14.2721 16.5321Z" fill="white"/>
<path opacity="0.35" d="M11.1281 2.46796L2.7391 7.62996C1.3451 8.48796 1.3451 10.513 2.7391 11.371L11.1271 16.533C12.0911 17.126 13.3071 17.126 14.2721 16.533L22.6601 11.371C24.0541 10.513 24.0541 8.48796 22.6601 7.62996L14.2721 2.46796C13.3081 1.87396 12.0921 1.87396 11.1281 2.46796Z" fill="white"/>
<path d="M12.7001 10C13.8046 10 14.7001 9.32843 14.7001 8.5C14.7001 7.67157 13.8046 7 12.7001 7C11.5955 7 10.7001 7.67157 10.7001 8.5C10.7001 9.32843 11.5955 10 12.7001 10Z" fill="white"/>
<path d="M13.23 9.34791L19.294 5.55791C18.855 4.03991 17.392 4.38791 17.392 4.38791L12.17 7.65191L13.23 9.34791Z" fill="white"/>
</svg>
