<svg width="24" height="24" viewBox="0 0 24 24" fill="none" xmlns="http://www.w3.org/2000/svg">
<g clip-path="url(#clip0_488_11464)">
<path d="M11.9131 12.9319C11.9379 12.9319 11.9628 12.9319 11.9926 12.9319C12.0026 12.9319 12.0125 12.9319 12.0224 12.9319C12.0373 12.9319 12.0572 12.9319 12.0721 12.9319C13.5283 12.907 14.7062 12.3951 15.576 11.416C17.4894 9.25906 17.1713 5.5614 17.1365 5.20853C17.0123 2.55954 15.7599 1.29219 14.7261 0.700766C13.9558 0.258439 13.0562 0.0198799 12.0523 0H12.0175C12.0125 0 12.0026 0 11.9976 0H11.9678C11.4161 0 10.3326 0.0894595 9.29392 0.680886C8.25022 1.27231 6.97791 2.53966 6.85366 5.20853C6.81887 5.5614 6.50079 9.25906 8.41423 11.416C9.27901 12.3951 10.4569 12.907 11.9131 12.9319ZM8.18064 5.33278C8.18064 5.31787 8.18561 5.30296 8.18561 5.29302C8.34962 1.72955 10.8793 1.34686 11.9628 1.34686H11.9827C11.9926 1.34686 12.0075 1.34686 12.0224 1.34686C13.3643 1.37668 15.6455 1.92338 15.7996 5.29302C15.7996 5.30793 15.7996 5.32284 15.8046 5.33278C15.8096 5.36757 16.1574 8.74715 14.577 10.5264C13.9508 11.2321 13.1158 11.58 12.0175 11.59C12.0075 11.59 12.0026 11.59 11.9926 11.59C11.9827 11.59 11.9777 11.59 11.9678 11.59C10.8744 11.58 10.0344 11.2321 9.4132 10.5264C7.83772 8.75709 8.17567 5.3626 8.18064 5.33278Z" fill="#C0C0C0"/>
<path d="M22.2059 19.0647C22.2059 19.0598 22.2059 19.0548 22.2059 19.0498C22.2059 19.0101 22.2009 18.9703 22.2009 18.9256C22.1711 17.9415 22.1065 15.6404 19.9495 14.9049C19.9346 14.8999 19.9147 14.8949 19.8998 14.89C17.6584 14.3184 15.7946 13.0262 15.7747 13.0113C15.4716 12.7976 15.0541 12.8721 14.8404 13.1753C14.6267 13.4785 14.7012 13.896 15.0044 14.1097C15.0889 14.1693 17.0669 15.546 19.542 16.1822C20.7 16.5947 20.8292 17.8322 20.864 18.9653C20.864 19.0101 20.864 19.0498 20.869 19.0896C20.8739 19.5369 20.8441 20.2277 20.7646 20.6253C19.9594 21.0826 16.8035 22.663 12.0025 22.663C7.22141 22.663 4.0456 21.0776 3.23549 20.6203C3.15597 20.2227 3.12118 19.5319 3.13112 19.0846C3.13112 19.0449 3.13609 19.0051 3.13609 18.9604C3.17088 17.8272 3.3001 16.5897 4.4581 16.1772C6.93315 15.541 8.9112 14.1594 8.99569 14.1047C9.29886 13.891 9.37341 13.4735 9.1597 13.1703C8.94599 12.8672 8.52851 12.7926 8.22534 13.0063C8.20546 13.0212 6.35166 14.3134 4.10027 14.885C4.08039 14.89 4.06548 14.8949 4.05057 14.8999C1.8936 15.6404 1.82899 17.9415 1.79917 18.9206C1.79917 18.9653 1.79917 19.0051 1.7942 19.0449C1.7942 19.0498 1.7942 19.0548 1.7942 19.0598C1.78923 19.3182 1.78426 20.6452 2.04767 21.3112C2.09737 21.4404 2.18683 21.5497 2.30611 21.6243C2.45521 21.7237 6.02862 23.9999 12.0075 23.9999C17.9864 23.9999 21.5598 21.7187 21.7089 21.6243C21.8232 21.5497 21.9176 21.4404 21.9673 21.3112C22.2158 20.6502 22.2108 19.3232 22.2059 19.0647Z" fill="#C0C0C0"/>
</g>
<defs>
<clipPath id="clip0_488_11464">
<rect width="24" height="24" fill="white"/>
</clipPath>
</defs>
</svg>
